<svg id="Layer_1" data-name="Layer 1" xmlns="http://www.w3.org/2000/svg" viewBox="0 0 266.51 201.7"><defs><style>.cls-1{fill:#23272b;}</style></defs><g id="SvgjsG1020"><path class="cls-1" d="M7284.58-7216c0-.84.13-1.68.13-2.52,0-45.52-30.82-82.36-68.84-82.36-27.43,0-51,19.19-62.06,46.92a31.1,31.1,0,0,0-16-4.55c-17.54,0-32.18,15.34-35,35.37-21.06,8.54-36.1,32.28-36.1,60.23,0,35.16,23.85,63.73,53.25,63.73h61v-56h-28.69l47.73-58.62,47.73,58.55H7219v56h65.63c26.89,0,48.6-26.26,48.6-58.41S7311.48-7215.84,7284.58-7216Z" transform="translate(-7066.75 7300.85)"/></g></svg>