<svg 
    xmlns="http://www.w3.org/2000/svg" 
    viewBox="0 0 174.4 129.1"
    >
        <polygon 
            fill="#000000" 
            points="2.45 90.46 8.84 90.46 8.84 120.26 165.55 120.26 165.55 104.01 171.95 104.01 171.95 126.65 2.45 126.65 2.45 90.46"
        />
        <path 
            fill="#000000" 
            d="M177.89,134.63H3.49V93.54h11.3v29.79H166.6V107.09h11.29Zm-169.5-4.9H173V112h-1.51v16.24H9.89V98.43H8.39Z" 
            transform="translate(-3.49 -5.53)"
        />
        <polygon 
            fill="#000000" 
            points="171.95 38.64 165.55 38.64 165.55 8.85 8.84 8.85 8.84 25.09 2.45 25.09 2.45 2.45 171.95 2.45 171.95 38.64"
        />
        <path 
            fill="#000000" 
            d="M177.89,46.62H166.6V16.82H14.79V33.06H3.49V5.53h174.4Zm-6.4-4.9H173V10.42H8.39V28.17h1.5V11.92h161.6Z" 
            transform="translate(-3.49 -5.53)"
        />
</svg>