<svg id="Layer_1" data-name="Layer 1" xmlns="http://www.w3.org/2000/svg" viewBox="0 0 960.44 132.83"><defs><style>.cls-1{fill:#010101;}</style></defs><path class="cls-1" d="M265.53,52.26a7.12,7.12,0,0,0-4.73,1.65,5.17,5.17,0,0,0-2,4.05,3.89,3.89,0,0,0,1.33,3.24q1.48,1.06,7,2.61,7.56,2.13,11.18,4.74,6.28,4.58,6.28,13.09a16.89,16.89,0,0,1-5.59,12.78,19.78,19.78,0,0,1-27,0,16.92,16.92,0,0,1-5.58-12.78h12.35a5.21,5.21,0,0,0,2,4.1,7.12,7.12,0,0,0,4.73,1.65,7.21,7.21,0,0,0,4.79-1.65,5.18,5.18,0,0,0,2-4.1,3.91,3.91,0,0,0-1.39-3.3q-1.53-1.11-7.13-2.66-7.56-2.13-11.13-4.74-6.22-4.51-6.22-13a17,17,0,0,1,5.58-12.78,19.91,19.91,0,0,1,27,0A17,17,0,0,1,284.64,58H272.35a5.14,5.14,0,0,0-2-4.05A7.21,7.21,0,0,0,265.53,52.26Z" transform="translate(-19.73 -3.36)"/><path class="cls-1" d="M321.63,40.49h7.93V52.58h-7.93V99.16H309.55V52.58h-7.88V40.49h7.88v-19h12.08Z" transform="translate(-19.73 -3.36)"/><path class="cls-1" d="M376,39.91a28.26,28.26,0,0,1,20.82,8.78,29,29,0,0,1,8.62,21.14A29,29,0,0,1,396.84,91a29.06,29.06,0,0,1-41.63,0,29,29,0,0,1-8.62-21.13,29,29,0,0,1,8.62-21.14A28.11,28.11,0,0,1,376,39.91Zm0,47.48a16.4,16.4,0,0,0,12.09-5.11,18,18,0,0,0,0-24.91,16.9,16.9,0,0,0-24.22,0,18.12,18.12,0,0,0,0,24.91A16.44,16.44,0,0,0,376,87.39Z" transform="translate(-19.73 -3.36)"/><path class="cls-1" d="M438.3,45.39a24.93,24.93,0,0,1,15-4.9h6.06V52.58h-6.06a13.6,13.6,0,0,0-10.6,5.06,17.93,17.93,0,0,0-4.36,12.13V99.16H426.21V40.49H438.3Z" transform="translate(-19.73 -3.36)"/><path class="cls-1" d="M487.05,67.59a14.9,14.9,0,0,0,4.36,10.81,14.6,14.6,0,0,0,21.08,0,15.09,15.09,0,0,0,4.37-10.86q0-.69-.06-1.38V40.49h12.35V89.74q-.21,12.62-8.14,21t-18.63,8.41a27.29,27.29,0,0,1-15.76-5.32A29.13,29.13,0,0,1,476.24,101l11.55-4.42a17.46,17.46,0,0,0,5.86,7.08,15.38,15.38,0,0,0,8.73,3.09,12.86,12.86,0,0,0,10-4.9,18.42,18.42,0,0,0,4.37-11.12,26.89,26.89,0,0,1-34.07-3.62,26.83,26.83,0,0,1-8-19.54V40.49h12.35Z" transform="translate(-19.73 -3.36)"/><path class="cls-1" d="M580.73,40.12a28.21,28.21,0,0,1,20.81,8.79A29,29,0,0,1,610.16,70a28.9,28.9,0,0,1-8.62,21.08,28.79,28.79,0,0,1-37.95,3.14v4.95H551.23V21.44h12.36V45.71A28.43,28.43,0,0,1,580.73,40.12Zm0,47.49a16.11,16.11,0,0,0,12-5.17,17.8,17.8,0,0,0,0-24.86,16.72,16.72,0,0,0-24.16,0,18,18,0,0,0,0,24.86A16.24,16.24,0,0,0,580.73,87.61Z" transform="translate(-19.73 -3.36)"/><path class="cls-1" d="M658.49,39.91a28.22,28.22,0,0,1,20.81,8.78,29,29,0,0,1,8.63,21.14A29,29,0,0,1,679.3,91a29.05,29.05,0,0,1-41.62,0,29,29,0,0,1-8.63-21.13,29,29,0,0,1,8.63-21.14A28.11,28.11,0,0,1,658.49,39.91Zm0,47.48a16.39,16.39,0,0,0,12.08-5.11,18,18,0,0,0,0-24.91,16.9,16.9,0,0,0-24.22,0,18.14,18.14,0,0,0,0,24.91A16.46,16.46,0,0,0,658.49,87.39Z" transform="translate(-19.73 -3.36)"/><path class="cls-1" d="M765.1,99.16H752.75V94.1A28.9,28.9,0,0,1,714.85,91a29,29,0,0,1-8.62-21.13,29,29,0,0,1,8.62-21.14,29,29,0,0,1,37.9-3.19v-5H765.1ZM735.67,87.39a16.39,16.39,0,0,0,12.08-5.11,18,18,0,0,0,0-24.91,16.9,16.9,0,0,0-24.22,0,18.14,18.14,0,0,0,0,24.91A16.46,16.46,0,0,0,735.67,87.39Z" transform="translate(-19.73 -3.36)"/><path class="cls-1" d="M799.27,45.39a25,25,0,0,1,15-4.9h6.07V52.58h-6.07a13.56,13.56,0,0,0-10.59,5.06,17.89,17.89,0,0,0-4.37,12.13V99.16H787.18V40.49h12.09Z" transform="translate(-19.73 -3.36)"/><path class="cls-1" d="M894.55,99.21H882.19V94.26a28.72,28.72,0,0,1-37.9-3.14A28.9,28.9,0,0,1,835.67,70a29,29,0,0,1,8.62-21.13,29,29,0,0,1,37.9-3.2V21.44h12.36Zm-29.44-11.6a16.3,16.3,0,0,0,12.08-5.17,18,18,0,0,0,0-24.86,16.79,16.79,0,0,0-24.22,0,18.08,18.08,0,0,0,0,24.86A16.37,16.37,0,0,0,865.11,87.61Z" transform="translate(-19.73 -3.36)"/><polygon class="cls-1" points="2.52 93.07 9.1 93.07 9.1 123.73 170.34 123.73 170.34 107.02 176.92 107.02 176.92 130.31 2.52 130.31 2.52 93.07"/><path class="cls-1" d="M199.16,136.19H19.73V93.91H31.35v30.66h156.2V107.86h11.61Zm-174.4-5H194.13V112.9h-1.55v16.71H26.31V99H24.76Z" transform="translate(-19.73 -3.36)"/><polygon class="cls-1" points="176.92 39.76 170.34 39.76 170.34 9.1 9.1 9.1 9.1 25.81 2.52 25.81 2.52 2.52 176.92 2.52 176.92 39.76"/><path class="cls-1" d="M199.16,45.64H187.55V15H31.35V31.69H19.73V3.36H199.16Zm-6.58-5h1.55V8.4H24.76V26.66h1.55V9.94H192.58Z" transform="translate(-19.73 -3.36)"/><path class="cls-1" d="M956.85,29.14h23.32V41.23H956.85V64.54H944.77V41.23H921.45V29.14h23.32V5.88h12.08Z" transform="translate(-19.73 -3.36)"/></svg>