<svg 
xmlns="http://www.w3.org/2000/svg" 
viewBox="0 0 733.69 113.24">

<path fill="#000000" d="M22.5,59.5a7.12,7.12,0,0,0-4.73,1.65,5.15,5.15,0,0,0-2,4,3.9,3.9,0,0,0,1.33,3.25q1.49,1.07,7,2.61,7.56,2.13,11.18,4.74,6.29,4.58,6.28,13.09A16.91,16.91,0,0,1,36,101.66,18.87,18.87,0,0,1,22.5,107,18.84,18.84,0,0,1,9,101.66,16.93,16.93,0,0,1,3.45,88.88H15.8a5.21,5.21,0,0,0,2,4.1,7.12,7.12,0,0,0,4.73,1.65A7.21,7.21,0,0,0,27.29,93a5.18,5.18,0,0,0,2-4.1,3.91,3.91,0,0,0-1.39-3.3c-1-.74-3.4-1.63-7.13-2.66q-7.56-2.13-11.13-4.74-6.22-4.52-6.22-13A17,17,0,0,1,9,52.42,18.92,18.92,0,0,1,22.5,47.15,19,19,0,0,1,36,52.42a17,17,0,0,1,5.59,12.77H29.32a5.13,5.13,0,0,0-2-4A7.21,7.21,0,0,0,22.5,59.5Z" transform="translate(-3.45 -13.12)"/>

<path fill="#000000" d="M78.6,47.73h7.93V59.82H78.6V106.4H66.52V59.82H58.64V47.73h7.88v-19H78.6Z" transform="translate(-3.45 -13.12)"/>

<path fill="#000000" d="M133,47.15a28.22,28.22,0,0,1,20.81,8.78,29,29,0,0,1,8.63,21.14A29,29,0,0,1,153.8,98.2a29.05,29.05,0,0,1-41.62,0,29,29,0,0,1-8.62-21.13,29,29,0,0,1,8.62-21.14A28.11,28.11,0,0,1,133,47.15Zm0,47.48a16.41,16.41,0,0,0,12.09-5.11,18,18,0,0,0,0-24.91,16.9,16.9,0,0,0-24.22,0,18.12,18.12,0,0,0,0,24.91A16.42,16.42,0,0,0,133,94.63Z" transform="translate(-3.45 -13.12)"/>

<path fill="#000000" d="M195.27,52.63a24.93,24.93,0,0,1,15-4.9h6.06V59.82h-6.06a13.62,13.62,0,0,0-10.6,5.05A18,18,0,0,0,195.27,77V106.4H183.18V47.73h12.09Z" transform="translate(-3.45 -13.12)"/>

<path fill="#000000" d="M244,74.83a14.93,14.93,0,0,0,4.36,10.81,14.6,14.6,0,0,0,21.08,0,15.1,15.1,0,0,0,4.37-10.86c0-.46,0-.92-.06-1.39V47.73h12.35V97q-.21,12.61-8.14,21t-18.63,8.41A27.31,27.31,0,0,1,243.59,121a29,29,0,0,1-10.38-12.77l11.55-4.42a17.38,17.38,0,0,0,5.86,7.08,15.38,15.38,0,0,0,8.73,3.09,12.86,12.86,0,0,0,10-4.9A18.42,18.42,0,0,0,273.72,98a26.87,26.87,0,0,1-34.07-3.63,26.79,26.79,0,0,1-8-19.53V47.73H244Z" transform="translate(-3.45 -13.12)"/>

<path fill="#000000" d="M337.69,47.36a28.24,28.24,0,0,1,20.82,8.78,29,29,0,0,1,8.62,21.14,28.9,28.9,0,0,1-8.62,21.08,28.83,28.83,0,0,1-38,3.14v5H308.2V28.68h12.35V53A28.39,28.39,0,0,1,337.69,47.36Zm0,47.48a16.14,16.14,0,0,0,12-5.16,17.8,17.8,0,0,0,0-24.86,16.72,16.72,0,0,0-24.16,0,17.92,17.92,0,0,0,0,24.86A16.26,16.26,0,0,0,337.69,94.84Z" transform="translate(-3.45 -13.12)"/>

<path fill="#000000" d="M415.46,47.15a28.22,28.22,0,0,1,20.81,8.78,29,29,0,0,1,8.63,21.14,29,29,0,0,1-8.63,21.13,29.05,29.05,0,0,1-41.62,0A29,29,0,0,1,386,77.07a29,29,0,0,1,8.63-21.14A28.1,28.1,0,0,1,415.46,47.15Zm0,47.48a16.39,16.39,0,0,0,12.08-5.11,18,18,0,0,0,0-24.91,16.9,16.9,0,0,0-24.22,0,18.14,18.14,0,0,0,0,24.91A16.46,16.46,0,0,0,415.46,94.63Z" transform="translate(-3.45 -13.12)"/>

<path fill="#000000" d="M522.07,106.4H509.72v-5.06a28.9,28.9,0,0,1-37.9-3.14,29,29,0,0,1-8.62-21.13,29,29,0,0,1,8.62-21.14,29,29,0,0,1,37.9-3.19v-5h12.35ZM492.64,94.63a16.39,16.39,0,0,0,12.08-5.11,18,18,0,0,0,0-24.91,16.9,16.9,0,0,0-24.22,0,18.14,18.14,0,0,0,0,24.91A16.46,16.46,0,0,0,492.64,94.63Z" transform="translate(-3.45 -13.12)"/>

<path fill="#000000" d="M556.24,52.63a25,25,0,0,1,15-4.9h6.07V59.82H571.2a13.62,13.62,0,0,0-10.6,5.05A18,18,0,0,0,556.24,77V106.4H544.15V47.73h12.09Z" transform="translate(-3.45 -13.12)"/>

<path fill="#000000" d="M651.52,106.45H639.16v-5a28.75,28.75,0,0,1-37.9-3.14,28.9,28.9,0,0,1-8.62-21.08,29,29,0,0,1,8.62-21.14A29,29,0,0,1,639.16,53V28.68h12.36ZM622.08,94.84a16.33,16.33,0,0,0,12.08-5.16,18,18,0,0,0,0-24.86,16.79,16.79,0,0,0-24.22,0,18.08,18.08,0,0,0,0,24.86A16.39,16.39,0,0,0,622.08,94.84Z" transform="translate(-3.45 -13.12)"/>

<path fill="#000000" d="M713.82,36.38h23.32V48.47H713.82V71.78H701.74V48.47H678.42V36.38h23.32V13.12h12.08Z" transform="translate(-3.45 -13.12)"/>

</svg>