<svg version="1.1" id="Layer_1" xmlns="http://www.w3.org/2000/svg"  x="0px" y="0px"
	 viewBox="0 0 88.8 96.7" style="enable-background:new 0 0 88.8 96.7;" >
<path class="st0" d="M10.9,75.6l0.4,1l1.3,2.1l1.1,1.9l1.2,1.2l1,0.7l0.9,0.2L17,83l0.5,0.2l1.2,0.1l1.3,0.5l2.4-0.1l0.9,0.1
	l1.2-0.1l2.2-0.7l1.2,0l1.6-0.7l3.1-2.1l0-0.1l0.6-0.2l1.3-1.6l0.4-0.2l0.1-0.2l0.5-0.4l0.3-0.5l1.2-1.3l1.3-0.2l0.4,0.2l0.5,0
	l0.5,0.5l0.3-0.1l0.6,0.5l0.5,0.1l0.7,0.6l1,0.5l0.9,0.1l0.9,0.5l1.2,0.2l0.5,0.3l0.5,0l2.3,0.8l2.2,0.3l1.1-0.1l2.4,0l1.3-0.2
	l2.4-0.5l2-1l0.5-0.1l0.1-0.2l2.1-1l0.7-0.6l0.3-0.1l0-0.2l0.4-0.1l0.5-0.6l0.3-0.1l0.3-0.6l0.5-0.5l0.1-0.1l0.8-1.4l0.7-0.7l0.7-1
	l0.1-0.5l0.6-0.9l0.4-1.1l0.4-0.5l0-0.9l0.4-0.5l0-0.1l0.4-2.4l0-2.1l-0.2-0.2l-0.2-3.6L70,55.3l-0.7-2.5l-1-2l-1.3-2l-0.3-0.1
	l-0.2-0.5l-1.2-1.1l-1-0.7l-2.2-1.6l-0.8-0.8l0-0.6l0.5-0.8l0.8-0.5l1.1-0.9l0.8-0.8l0.4-0.2l0.1-0.4l0.4-0.1l0.1-0.2l0.3-0.1
	l0.4-0.6l0.2,0l0.3-0.4l1.5-1.9l0.2-0.8l0.3-0.2l0.2-0.8l0.4-0.3l0.1-0.9l0.3-0.4l0.1-1.8l0.4-0.5l-0.1-0.5l0.1-0.2l-0.1-0.8
	l-0.4-2.5l-0.4-2.5l-0.7-2.1l-1.2-2.1l-0.9-1.1l-1.2-2l-1-0.7l-0.1-0.3l-1.7-1.2l-1.9-1.4l-0.6-0.1l-1-0.6l-0.5,0l-0.4-0.3l-0.7,0
	L57,12.1l-0.5-0.1l-0.5-0.3l-1.4-0.3l-2.4-0.4l0-0.1l-2.2,0.3l-2.3,0l-2.5,0.5l-2.2,0.5L40.6,13l-2.2,0.8l-2.1,0.9l-0.9,0.7
	l-1.5,0.8l-1,0.8L32,17.8L31.5,18l-0.6,0.7L30.3,19l-0.9,1l-1.4,1.9l-1.5,1.9l-0.5,1L24.8,27l-1.1,2.2L23,31.4l0,0.7l-0.1,0.2
	L22.9,34l-0.1,0l0,0.4l-0.2,0.2l-0.4,1.2l0.1,0.5l-0.1,0.6l0.5,2.4l-0.1,0.2l0,1.5l0.2,1.2l0.7,2.4l0.7,2.4L25,49l0.8,0.9l0.2,0.5
	l0.4,0.1l0.3,0.6l0.9,0.5l0.9-0.2l0.2-0.3l0.4-0.2l0.8-0.9l0.9-0.7l0.3-0.5l0.3-0.1l0.6-0.9l0.1-0.5l0.2-0.2l0.1-0.6l-0.8-1.3
	l-0.2-0.5L30,40.1L29.9,39l0.1-2.5l0.3-2.3l0.7-2.3l0.4-1l0.1-0.8l0.3-0.1l0-0.5l1-1.5l1.3-2l0.4-0.2l0.5-0.8l2.5-2.5l1-0.6l2.2-1.1
	l2.2-1.1l2.3-0.6l2.6-0.4l2.2-0.1l1.3,0.2l2.3,0.3l0.7,0.3l0.3-0.1l0,0.1l0.4-0.1l0.2,0.3l0.3-0.1l0.4,0.4l0.5,0l0.1,0.2l0.5,0.3
	l1.9,1.4l0.7,0.7l0.6,1l1.2,2.3l0.7,2.6l0,2.3l-0.1,0l0.1,0.5l-0.1,0.2l0,0.7l-0.2,0.4l0.1,0.3l-0.1,0l0.1,0.4l-0.3,0.2L61,34
	l-0.8,1.1l-0.1,0.5l-0.7,0.8L57.8,38l-1,0.6L54.6,40l-2.5,0.6L49.7,41l-1.1-0.2l-0.9-0.6l-0.2-0.5l0.1-0.5l0.6-2l0.1-2l0.3-0.4
	l0.1-0.8l0.4-0.5l0.4-1.1l1.1-2.2l1.5-1.7l0.7-1.1l0.3-1.1l-0.2-0.5l-1.2-2.1l-1.1-0.8L50,22.6l-0.2-0.2l-1.2,0.2l0,0.2l-1.3,0.4
	l-0.2,0.3l-0.6,0.3l-0.6,0.6l-1,0.8l0,0.2l-0.4,0.1l-0.6,0.7l-1.3,1.9l-0.8,0.9l-0.1,0.5L41.4,30l-0.6,1.6l0,0.5l-0.4,0.5L40,33.7
	l0,0.5l-0.4,1.1l-0.4,2.1l-0.5,2.1l-0.4,2.3l-0.2,0.4l-0.4,2.4l-0.4,2.4L37,47.7l-0.1,0.9l-0.2,0.3l-0.1,1l-0.2,0.2l-0.1,0.6
	L36,53.1l-0.3,0.8l-0.3,2.1l-0.3,0.7l-0.2,1l-0.4,2.3l-0.7,2.5l-0.6,1l-0.8,0.6L31,64.1l-1-0.4l-2.3-1l-2.3-0.4l-1.8-0.1l-2.5,0.3
	l0-0.1l-2.6,0.5l-1,0.5l-2.2,1.1l-1.2,1.3l-0.7,1L13,66.9L11.8,69l-0.2,1.2l-0.5,1.1l-0.4,1.8l0.2,1.2L10.9,75.6z M68.2,60.9L68,61
	l-0.3-0.1l0-0.3l0.5,0.1L68.2,60.9z M67.1,58.8l0.4-0.2l0.3,0.2l0.1,0.4l-0.3,0.2l-0.5-0.1l0-0.1L67.1,58.8z M40.5,47.1l-0.6-0.2
	l0-0.2l0-0.3l0.4-0.4l0.4-0.1l0.3,0.6L40.8,47L40.5,47.1z M40.7,52.2l0.1-0.2l0.3,0.1l-0.1,0.4l-0.4-0.1L40.7,52.2z M41.5,55.2
	l0.1,0.4l-0.1,0.2l-0.1,0l-0.3-0.2L41,55.3l0.1-0.2L41.5,55.2z M41.5,52.3l0.1-0.3l0.5-0.4l0.2,0l0.2,0.4l-0.2,0.3l-0.7,0.2
	L41.5,52.3z M54.5,43.1l0.2,0.1l0.1,0.3l-0.1,0.2l-0.1,0l-0.2-0.3L54.5,43.1z M46.1,47.6L46.1,47.6l0.9-0.5l0.9,0l0.5,0.4l0.9-0.1
	l1.7,0.3l2.2,0.8l2.5,0.9l0.3,0.4l0.6,0.1l1.1,0.8l1.8,1.6l0.7,0.9l1.4,2.2L62,57l0.1,1.2l0.3,2.4l-0.2,2.5L61.8,64l0,0.5l-0.3,0.2
	l0.1,0.3l-0.1,0l0,0.2l-0.9,2.1l-1.5,1.9l-0.6,0.3L58,70l-0.5,0.2L57,70.6l-1.9,0.9l-1.2,0l-0.6,0.3l-0.6,0.1l-2.4,0l-2.3-0.4
	l-1.2-0.1l-0.3-0.2l-0.3,0.1l0-0.1L45.7,71l-0.2-0.3l-0.4,0l-0.4-0.4l-0.4,0l-0.9-0.4L43.1,70L43,69.7l-0.3,0l-1-0.7L41,68.2l-0.1-1
	l0.1,0l0.1-1l0.3-0.4l-0.1-0.3l0.1,0l0-0.5l0.2-0.6l0.9-2l0-0.5l0.4-2.2l0.6-2.3l0.3-0.4l0.1-0.5l0.2-2.1l0.4-0.5l0-0.9l0.2-1.2
	l0.2-0.3l-0.1-0.5l0.3-0.4l0-0.6l0.2-0.3l-0.1-0.5L46.1,47.6z M44.5,45.3l-0.2,0.3l-0.5,0l-0.5-0.3l-0.3,0l0-0.1l0.1-0.5l0.4,0.1
	l0.4,0.4L44.5,45.3z M44,39.8l0.1-0.2l0.3-0.1l0.4,0.3l0.1,0.7l-0.8,0.1L44,39.8z M45.7,42.5l-0.3,0.4l-0.3,0l-0.5-0.3L44.2,42
	l0.1-0.1l0.7,0l0.6,0.3L45.7,42.5z M43.5,34.3l0.1,0.2l-0.2,0.2l-0.1-0.1l-0.1-0.4L43.5,34.3z M43,35.4l0.4,0.2l0.8-0.3l0.6,0.2
	l0.2,0l0.3,0.4l-0.5-0.1l-0.6,0.4L44,36.2l-1.1-0.3L43,35.4z M42.2,39.3l0.3-0.1l0.4,0.4l0,0.6l-0.1,0l-0.4-0.2l-0.2-0.3L42.2,39.3z
	 M41.6,49.8l0.1,0l0,0.4l-0.5,0.6l-0.2,0l-0.2-0.1l-0.1-0.3l0.2-0.6l0.2-0.1L41.6,49.8z M40.7,44.6l0.5,0.2l-0.1,0.5l-0.4,0
	l-0.4-0.4L40,45l-0.3-0.2l-0.1-0.3L40.7,44.6z M38.7,68.3l-0.2,0.2l-0.4,0.1l0-0.2l0.1-0.5l0.5,0.1L38.7,68.3z M38.3,57.5l0.4,0.1
	l-0.2,0.3l-0.3-0.1L38.3,57.5z M37.8,65.6l0.4-0.1l0.2,0.2l0.1,0.4l-0.5,0l-0.3-0.4L37.8,65.6z M36.1,66.7l0.2,0.5l0.2,0.1l0.3,0.5
	L36,68.1L35.9,68l-0.3-1.2L36.1,66.7z M35.4,71.4l0.4-0.1l0.3,0.1L36,71.9L35.5,72l-0.3-0.2l-0.1-0.3L35.4,71.4z M34.6,66.7l0.3-0.2
	l0.2,0l0.1,0.1L35,66.9l-0.4,0L34.6,66.7z M33.6,70.8l1.1,0.3l0.2,1.7l-0.5-0.1l0-0.6L33,72.4l-0.2-0.1l0-0.1l0.1-0.5l-0.2-0.9
	L33.6,70.8z M25.4,81.6l-0.1-0.4l0.2,0l0.4,0.3L25.4,81.6z M18.1,73.1l0.1-1.2l0.3-1.1l0.7-0.9l0.9-0.4l0.1-0.1l1.4-0.5l0.3-0.3
	l1.4-0.1l2.5,0.5l2.4,1l0.9,0.7l0.2,1l-1.2,2l-0.5,0.3l-0.4,0.5l-2,0.8L25,75.7l-1,0.4l-1.2,0.3l-1.1,0l-0.9-0.3L18.7,75L18,74
	l0-0.7L18.1,73.1z"/>
</svg>
