
<svg version="1.1" id="Layer_1" xmlns="http://www.w3.org/2000/svg" x="0px" y="0px"
	 viewBox="0 0 88.8 96.7" style="enable-background:new 0 0 88.8 96.7;">
<g>
	<path d="M52,51.5c-1.4,2.4-4,4-6.9,4c-4.4,0-8-3.6-8-8s3.6-8,8-8c2.9,0,5.5,1.6,6.9,4h3.3c-1.6-4.1-5.6-6.9-10.2-6.9
		c-6.1,0-11,4.9-11,11s4.9,11,11,11c4.6,0,8.6-2.9,10.2-7H52z"/>
	<path d="M10.8,33.6h3V40c2-2.1,4.9-3.5,8-3.5c6.1,0,11,4.9,11,11s-4.9,11-11,11c-6.1,0-11-4.9-11-11V33.6z M13.8,47.5
		c0,4.4,3.6,8,8,8c4.5,0,8-3.6,8-8s-3.6-8-8-8C17.3,39.5,13.8,43.1,13.8,47.5z"/>
	<path d="M78,47.3c0-6.1-4.9-11-11-11c-6.1,0-11,4.9-11,11s4.9,11,11,11c3.1,0,6-1.3,8-3.5c0,4.4-3.6,8-8,8c-1.8,0-3.5-0.6-4.9-1.7
		v3.5c1.5,0.7,3.1,1.2,4.9,1.2c6.1,0,11-4.9,11-11c0,0,0-0.1,0-0.1c0,0,0,0,0,0V47.3z M67,55.3c-4.5,0-8-3.6-8-8s3.6-8,8-8
		c4.4,0,8,3.6,8,8S71.4,55.3,67,55.3z"/>
</g>
</svg>
