<svg version="1.1" id="Layer_1" xmlns="http://www.w3.org/2000/svg" x="0px" y="0px"
	 viewBox="0 0 88.8 96.7" style="enable-background:new 0 0 88.8 96.7;">
<path d="M82.2,42.1c-0.4-0.4-0.9-0.6-1.4-0.5l-36,5.6L66,29.8c0.4-0.3,0.6-0.8,0.6-1.2c0-0.5-0.2-0.9-0.6-1.2l-1.6-1.3
	c-0.6-0.5-1.5-0.5-2,0.1L41,44.8l4-20.4c0.1-0.5,0-1-0.3-1.3c-0.3-0.4-0.8-0.5-1.2-0.5l-4.7,0.1c0,0,0,0,0,0c-0.8,0-1.5,0.6-1.6,1.4
	l-1.4,22L21.6,34.8c-0.6-0.5-1.4-0.5-2,0l-2.1,1.7c-0.4,0.3-0.6,0.8-0.6,1.3c0,0.5,0.3,1,0.7,1.2l14.1,9.7l-18,1.6
	c-0.7,0.1-1.3,0.6-1.4,1.3l-0.3,2c-0.1,0.5,0.1,1,0.4,1.4c0.3,0.4,0.8,0.5,1.3,0.5L31,53.5L17.6,64.7c-0.4,0.3-0.6,0.8-0.6,1.3
	c0,0.5,0.2,0.9,0.6,1.2l1.7,1.3c0.6,0.5,1.5,0.4,2-0.1l12.6-11.8l-3.1,14.2c-0.1,0.5,0,1,0.4,1.4c0.3,0.4,0.8,0.6,1.3,0.5l4.1-0.4
	c0.8-0.1,1.4-0.7,1.4-1.5l1.2-16l24.7,18.9c0.3,0.2,0.6,0.3,1,0.3c0.4,0,0.7-0.1,1-0.4l2.9-2.5c0.4-0.3,0.6-0.8,0.6-1.3
	c0-0.5-0.3-1-0.7-1.2L43.8,52.1l36.4-2.8c0.7-0.1,1.3-0.6,1.4-1.2l1-4.5C82.8,43,82.6,42.5,82.2,42.1"/>
</svg>
