<svg version="1.1" id="Layer_1" xmlns="http://www.w3.org/2000/svg" x="0px" y="0px"
	 viewBox="0 0 88.8 96.7" style="enable-background:new 0 0 88.8 96.7;">
<g>
	<path d="M80.5,34c0,0-0.1,0-0.1,0c-0.9-0.2-1.7-0.4-2.7-0.6c-0.6-0.1-1.2-0.2-1.8-0.4c-4.6-0.9-9.7-1.6-14.8-2.1
		c-5.6-0.5-11.2-0.9-16.1-0.9c-0.2,0-0.4,0-0.6,0c-0.1,0-0.3,0-0.4,0c-0.8,0-1.7,0-2.6,0c-1.1,0-2.2,0.1-3.4,0.1c-0.2,0-0.5,0-0.7,0
		c-8.1,0.4-16.9,1.6-24.6,2.9c0,0,0,0,0,0c-1.6,0.3-3,0.7-4.4,1.1c0,0-0.1,0-0.1,0c-0.1,0-0.3,0.1-0.4,0.1c0,0.1,0,0.2,0,0.3
		c0.6,7.3,2,14.3,5.3,20.7c0-0.1,0.1-0.1,0.2-0.1c0.1,0,0.1-0.1,0.2-0.1c0.1,0,0.1,0,0.2-0.1c1.2-0.3,2.4-0.6,3.5-0.9
		c1.2-0.3,2.5-0.5,3.7-0.8c0.2,0,0.4-0.1,0.5-0.1c1.2-0.2,2.3-0.4,3.5-0.6c1.9-0.3,3.8-0.6,5.7-0.8c1.3-0.1,2.6-0.2,3.8-0.3
		c2.2-0.2,4.3-0.2,6.5-0.3c1,0,2.1,0,3.1,0c4.5,0,9.1,0.2,13.7,0.6c0.2,0,0.3,0,0.5,0c4.7,0.5,9.4,1.2,14,2.3
		c0.5,0.1,0.9,0.2,1.4,0.3c0.5,0.1,0.9,0.2,1.4,0.4c0.1,0,0.2,0.1,0.3,0.1c0.2,0.1,0.3,0.1,0.4,0.3c2.7-5.3,4.1-11,4.8-16.9
		c0.2-1.4,0.3-2.8,0.4-4.2C80.8,34.1,80.7,34.1,80.5,34z M28.5,46.5c-0.4,0.7-1,1.2-1.7,1.7c-0.3,0.2-0.8,0.4-1.3,0.5
		c-0.6,0.2-1.4,0.4-2.2,0.5c-0.2,0-0.5,0.1-0.7,0.1c-2.5,0.4-3.9,0.8-6.6,1.4c-0.1-0.5-0.2-0.9-0.3-1.3c0-0.2-0.1-0.3-0.1-0.5
		c0.2-0.1,0.3-0.1,0.6-0.1c0.4-0.1,0.6-0.2,0.7-0.3c0.1-0.1,0.1-0.1,0.2-0.2c0,0,0-0.1,0.1-0.1c0,0,0-0.1,0-0.1c0-0.1,0-0.1,0-0.2
		c0-0.1,0-0.3-0.1-0.5c-0.7-3-1-4.6-1.7-7.6c-0.1-0.4-0.2-0.6-0.3-0.7c0,0,0,0,0,0c0,0,0,0-0.1-0.1c0,0-0.1-0.1-0.1-0.1
		c0,0-0.1,0-0.2-0.1c0,0-0.1,0-0.1,0c-0.1,0-0.2,0-0.4,0c-0.1,0-0.2,0-0.3,0.1c-0.1,0-0.2,0.1-0.3,0.1c-0.1,0-0.2,0-0.3,0.1
		c0-0.1,0-0.1-0.1-0.2c-0.1-0.3-0.1-0.5-0.2-0.7c-0.1-0.3-0.1-0.6-0.2-1c2-0.5,3.4-0.8,4.8-1.1c1.2-0.2,2.4-0.5,3.9-0.7
		c1.3-0.2,2.4-0.3,3.2-0.1c0.7,0.1,1.2,0.4,1.7,0.7c0.1,0.1,0.2,0.1,0.3,0.2c0.4,0.4,0.6,0.8,0.7,1.2c0,0.1,0.1,0.3,0.1,0.5
		c0.1,0.5,0,0.9-0.2,1.3c-0.1,0.2-0.1,0.3-0.2,0.5c-0.1,0.2-0.3,0.4-0.4,0.6c0,0-0.1,0.1-0.1,0.1c0,0,0,0,0,0c-0.4,0.4-1.4,1-1.4,1
		v0c0,0,0.2,0,0.5,0.1c0.3,0,0.6,0.1,0.8,0.1c0.1,0,0.3,0.1,0.3,0.1c0.3,0.1,0.6,0.3,0.8,0.4c0.2,0.2,0.4,0.3,0.6,0.6
		c0.4,0.5,0.6,1,0.7,1.6c0,0.2,0,0.4,0,0.5C28.9,45.4,28.7,45.9,28.5,46.5z M43.7,44.9c-0.3,0.7-0.5,1.5-0.9,2.5
		c-0.8,0-1.6,0.1-2.4,0.1c-1.7,0.1-3.4,0.2-5.1,0.3c-1.6,0.1-3.1,0.2-4.7,0.4c-0.1-0.8-0.1-1.2-0.2-1.9c0.1,0,0.1,0,0.1,0
		c0.1,0,0.1,0,0.2,0c0,0,0,0,0.1,0c0.2,0,0.3,0,0.5-0.1c0.2,0,0.3-0.1,0.4-0.1c0,0,0.1,0,0.1,0c0.2-0.1,0.3-0.2,0.3-0.4
		c0,0,0-0.1,0-0.2c0-0.1,0-0.3,0-0.6c-0.3-3-0.4-4.5-0.7-7.6c0-0.2,0-0.3-0.1-0.4c0-0.1-0.1-0.3-0.1-0.3c0,0,0-0.1,0-0.1
		c0,0-0.1-0.1-0.1-0.1c0,0,0,0,0,0c0,0,0,0,0,0c-0.1,0-0.1-0.1-0.2-0.1c0,0-0.1,0-0.2,0c-0.1,0-0.3,0-0.6,0c-0.3,0-0.4,0-0.7,0.1
		c-0.1-0.8-0.1-1.2-0.2-1.9c1.6-0.2,3.1-0.3,4.7-0.4c2.8-0.2,5.6-0.4,8.4-0.4c0.1,0.3,0.2,0.5,0.3,0.8c0.3,0.6,0.5,1.1,0.7,1.7
		c0.2,0.6,0.5,1.2,0.8,2c-0.8,0.3-1.2,0.4-2,0.7c-0.3-0.7-0.8-1.3-1.2-1.7c-0.1-0.1-0.2-0.2-0.3-0.3c-0.4-0.3-0.8-0.5-1.2-0.6
		c-0.1,0-0.2,0-0.3-0.1c-0.3,0-0.6-0.1-0.9-0.1c-0.2,0-0.5,0-0.8,0c-0.1,0-0.3,0-0.4,0c-0.4,0-0.7,0-1,0.1c-0.3,0-0.6,0-1,0.1
		c0.1,1.4,0.1,2.1,0.2,3.5c0.1,0,0.2,0,0.3,0c0.1,0,0.2,0,0.3,0c0,0,0.1,0,0.1,0c0.6,0,0.9-0.1,1.1-0.2c0.1,0,0.1-0.1,0.2-0.1
		c0.1-0.1,0.2-0.2,0.3-0.3c0-0.1,0-0.2,0.1-0.3c0-0.1,0-0.3,0-0.6c0,0,0-0.1,0-0.1c0-0.1,0-0.2,0-0.3c0-0.1,0-0.1,0-0.2
		c0.1,0,0.2,0,0.3,0c0.6,0,1,0,1.6-0.1l0.2,5.9c-0.7,0-1.1,0-1.9,0.1v0c0-0.1,0-0.2,0-0.3c0-0.1,0-0.2,0-0.3c0,0,0-0.1,0-0.1
		c0-0.3-0.1-0.5-0.1-0.7c0,0,0-0.1,0-0.1c-0.1-0.1-0.1-0.2-0.2-0.2c0,0-0.1-0.1-0.1-0.1c0,0,0,0,0,0c0,0-0.1,0-0.1,0c0,0,0,0,0,0
		c-0.2,0-0.5-0.1-1,0c-0.1,0-0.1,0-0.2,0c-0.3,0-0.4,0-0.7,0c0,0.7,0.1,1.2,0.1,1.7c0,0.4,0.1,0.9,0.1,1.5c0,0.2,0,0.3,0,0.4
		c0,0.1,0,0.2,0.1,0.2c0,0,0,0,0.1,0.1c0,0,0,0,0.1,0.1c0,0,0.1,0,0.1,0c0,0,0.1,0,0.2,0c0.1,0,0.2,0,0.3,0c0.1,0,0.1,0,0.2,0
		c0.1,0,0.1,0,0.2,0c0.4,0,0.6,0,1-0.1c0.9,0,1.6-0.2,2.3-0.5c0.1-0.1,0.2-0.1,0.4-0.2c0.5-0.3,0.9-0.6,1.3-1.1c0,0,0,0,0.1-0.1
		c0.3-0.4,0.5-0.7,0.7-1.2c0.1-0.2,0.2-0.5,0.3-0.8c0.3,0.1,0.6,0.2,0.8,0.2c0.2,0.1,0.3,0.1,0.5,0.2c0.2,0.1,0.4,0.1,0.7,0.2
		C44.3,43.3,44,44.1,43.7,44.9z M58.4,43.9c-0.1,1.2-0.7,2.2-1.8,2.9c-0.4,0.3-0.9,0.5-1.4,0.7c-0.8,0.3-1.7,0.4-2.8,0.3
		c-0.3,0-0.6-0.1-0.9-0.1c-0.4-0.1-0.8-0.2-1.1-0.3c-0.6-0.2-1.3-0.6-1.9-1c-0.1,0.2-0.2,0.3-0.2,0.5c-0.1,0.2-0.1,0.3-0.3,0.5
		c-0.6,0-0.9,0-1.5,0c-0.1-0.8-0.2-1.5-0.4-2.1c-0.2-1-0.3-2-0.6-3.4c0.7-0.2,1.1-0.2,1.7-0.4c0.1,0,0.2,0,0.3-0.1
		c0.4,1.1,1.1,2,2.1,2.8c0.3,0.2,0.5,0.4,0.8,0.6c0.2,0.1,0.5,0.3,0.8,0.4c0.5,0.2,1,0.3,1.5,0.3c0.5,0,0.9,0,1.3-0.1
		c0.3-0.1,0.6-0.3,0.8-0.5c0.1-0.1,0.2-0.2,0.2-0.4c0-0.1,0.1-0.2,0.1-0.3c0-0.1,0-0.1,0-0.2c0-0.1,0-0.2-0.1-0.3
		c-0.1-0.2-0.1-0.3-0.3-0.4c-0.1-0.1-0.1-0.1-0.2-0.2c-0.2-0.2-0.6-0.4-1-0.6c-0.3-0.1-0.7-0.3-1.1-0.4c-0.3-0.1-0.5-0.2-0.8-0.3
		c-0.5-0.2-1-0.3-1.7-0.6c-0.4-0.1-0.9-0.3-1.5-0.6c-0.2-0.1-0.3-0.2-0.5-0.3c-0.4-0.2-0.7-0.4-1-0.7c-0.3-0.3-0.6-0.7-0.8-1.2
		c-0.1-0.2-0.2-0.5-0.3-0.7c0-0.2-0.1-0.3-0.1-0.5c0-0.1,0-0.2,0-0.3c0-0.1,0-0.2,0-0.4c0-0.2,0.1-0.5,0.1-0.7
		c0.1-0.3,0.3-0.7,0.5-1c0.2-0.2,0.3-0.4,0.5-0.6c0.4-0.4,0.9-0.7,1.6-0.9c0.2-0.1,0.5-0.2,0.7-0.2c0.3-0.1,0.5-0.1,0.8-0.2
		c0.5-0.1,1-0.1,1.6-0.1c0.2,0,0.5,0,0.7,0.1c0.5,0.1,1,0.2,1.5,0.4c0.5,0.2,1,0.4,1.4,0.7c0,0,0,0,0,0c0.1-0.2,0.2-0.3,0.3-0.5
		c0-0.1,0.1-0.1,0.2-0.2c0.1,0,0.2,0,0.3,0c0.4,0,0.6,0.1,1,0.1c0.1,0,0.2,0,0.3,0c0.1,0.8,0.3,1.4,0.4,2c0.1,0.7,0.2,1.4,0.4,2.3
		c0,0.2,0.1,0.3,0.1,0.5c-0.8,0.1-1.2,0.2-2.1,0.3c0,0,0,0,0,0c-0.2-0.4-0.4-0.7-0.6-1c-0.3-0.5-0.7-0.9-1.1-1.3
		c-0.1-0.1-0.3-0.2-0.4-0.3c-0.8-0.6-1.7-0.9-2.7-1c-0.1,0-0.2,0-0.4,0c-0.4,0-0.8,0.1-1,0.2c0,0-0.1,0-0.1,0.1c0,0,0,0-0.1,0
		c-0.2,0.2-0.4,0.3-0.5,0.5c0,0.1,0,0.1,0,0.2c0,0.3,0.1,0.6,0.5,0.9c0.1,0.1,0.1,0.1,0.2,0.2c0.2,0.1,0.5,0.3,0.8,0.4
		c0.2,0.1,0.4,0.2,0.6,0.2c0.8,0.2,1.3,0.4,1.8,0.6c0.3,0.1,0.6,0.2,1,0.4c1.4,0.5,2.4,1.1,3,1.7c0,0,0,0,0,0c0,0,0,0,0,0
		c0.1,0.1,0.1,0.2,0.2,0.2c0,0.1,0.1,0.1,0.1,0.2c0.2,0.3,0.4,0.7,0.5,1c0.1,0.3,0.1,0.7,0.1,1C58.4,43.7,58.4,43.8,58.4,43.9z
		 M72.7,41.6c-0.3-0.9-0.5-1.5-0.6-1.8c-0.1-0.1-0.1-0.3-0.2-0.4c-0.2-0.4-0.5-0.7-0.8-1c0,0,0,0,0,0c0,0,0,0,0,0
		c-0.3-0.2-0.6-0.4-0.9-0.5c-0.1,0-0.1,0-0.2,0c-0.2,0-0.3,0-0.4,0c-0.1,0.1-0.1,0.2-0.2,0.5c-0.6,3.2-0.9,4.7-1.5,7.9
		c-0.1,0.5-0.1,0.8-0.1,0.9c0,0.1,0,0.1,0,0.2c0,0.1,0,0.1,0.1,0.1c0,0,0,0,0,0c0.1,0.1,0.2,0.1,0.3,0.2c0.1,0.1,0.5,0.1,1.1,0.3
		c0,0.1-0.1,0.3-0.1,0.4c-0.1,0.5-0.2,0.9-0.3,1.5c-2.4-0.5-3.7-0.7-5.8-1.1c-0.3,0-0.6-0.1-1-0.1c0.1-0.5,0.1-0.9,0.2-1.3
		c0-0.2,0.1-0.4,0.1-0.6c0,0,0.1,0,0.1,0c0.1,0,0.2,0,0.3,0c0.2,0,0.3,0,0.4,0.1c0.2,0,0.4,0,0.5,0c0.1,0,0.3-0.1,0.3-0.3
		c0,0,0,0,0-0.1c0,0,0-0.1,0.1-0.2c0.1-0.2,0.1-0.4,0.1-0.6c0.5-3.2,0.8-4.9,1.3-8.1c0-0.1,0-0.2,0-0.3c0,0,0,0,0,0
		c0-0.1,0-0.1,0-0.2c0,0,0,0,0,0c0,0-0.1-0.1-0.1-0.1c-0.1,0-0.1-0.1-0.3-0.1c-0.1,0-0.2,0-0.3,0c-0.2,0-0.4,0-0.6,0.1
		c-0.1,0-0.3,0.1-0.4,0.1c-0.5,0.2-1,0.5-1.4,0.9c0,0,0,0,0,0c-0.1,0.1-0.4,0.4-0.7,0.8c-0.1,0.2-0.3,0.4-0.4,0.6
		c-0.1-0.1-0.3-0.1-0.4-0.2c-0.5-0.2-0.9-0.4-1.5-0.7c0.2-0.3,0.3-0.6,0.4-0.8c0.7-1.3,1.2-2.2,2.1-3.8c0.3,0,0.5,0.1,0.6,0.1
		c0.3,0,0.5,0.1,0.8,0.1c0,0.2,0.1,0.3,0.1,0.5c3.1,0.4,4.8,0.7,7.6,1.3c0.4,0.1,0.7,0.2,1.2,0.2c0.1-0.1,0.1-0.2,0.2-0.3
		c0,0,0.1-0.1,0.1-0.2c0.2,0,0.3,0.1,0.4,0.1c0.3,0.1,0.6,0.1,1,0.2c0.3,2.1,0.5,3.1,0.8,5.2C74,41.5,73.6,41.5,72.7,41.6z"/>
	<path d="M72,55.7L72,55.7L72,55.7L72,55.7L72,55.7l-0.1,0l0,0l0,0l0,0l0,0l0,0l0,0l-0.2,0l0,0l0,0l0,0l0,0l0,0l0,0l-0.1,0l0,0l0,0
		l0,0l0,0l0,0l0,0l0,0l0,0l-0.1,0l0,0l0,0l0,0l0,0l0,0l-0.2-0.1l0,0l0,0l0,0l0,0l0,0l0,0l0,0c-0.2,0.5-0.4,0.9-0.6,1.4
		c-1.3,3-2.9,5.9-4.7,8.6c-2.7,4.1-5.8,7.8-9.4,11.2c-3.5,3.4-7.4,6.5-11.7,9.4c0,0,0,0,0,0c0,0,0,0,0,0c-2.8-1.9-5.5-3.9-8-6.1
		c-6.3-5.4-11.6-11.5-15.5-18.7c-0.8-1.4-1.5-2.9-2.2-4.4h0l-0.1-0.2l0-0.1c-0.1-0.4-0.3-0.7-0.4-1.1c-0.5,0.1-0.9,0.2-1.3,0.3
		l0.2,0.5c0.9,2.1,1.9,4.2,3.1,6.3c3.7,6.5,8.8,12.7,15.5,18.4c2.7,2.3,5.6,4.5,8.8,6.6c3-2,5.9-4.1,8.6-6.4
		c4.1-3.5,7.8-7.3,11-11.5C67.2,65.3,69.9,60.7,72,55.7L72,55.7z"/>
	<path d="M22.9,40.6c0.2-0.1,0.4-0.2,0.5-0.3c0.1-0.1,0.3-0.3,0.3-0.4c0.1-0.1,0.1-0.3,0.2-0.4c0-0.2,0-0.4,0-0.6c0-0.1,0-0.1,0-0.2
		c-0.1-0.3-0.2-0.5-0.4-0.7c-0.2-0.2-0.6-0.4-1-0.4c-0.4,0-1.1,0-2.1,0.2c-0.7,0.1-1,0.2-1.7,0.3c0.3,1.3,0.4,2,0.7,3.3
		c0.6-0.1,1-0.2,1.6-0.3C21.9,41,22.5,40.8,22.9,40.6z"/>
	<path d="M24.8,43.8c-0.1-0.1-0.1-0.2-0.2-0.3c-0.1-0.1-0.2-0.2-0.3-0.2c-0.2-0.1-0.4-0.2-0.7-0.3c-0.2,0-0.4,0-0.6,0
		c-0.4,0-0.8,0-1.3,0.1c-0.8,0.1-1.1,0.2-1.9,0.4c0,0.1,0.1,0.3,0.1,0.4c0.2,0.9,0.3,1.5,0.5,2.5c0.1,0.4,0.2,0.7,0.2,0.7
		c0,0.1,0.1,0.1,0.1,0.1c0,0,0,0,0.1,0c0.1,0,0.3,0,0.6-0.1c0.1,0,0.2,0,0.2,0c0.1,0,0.2,0,0.3-0.1c0.1,0,0.3-0.1,0.5-0.1
		c0.1,0,0.1,0,0.2,0c0.5-0.1,0.9-0.2,1.3-0.4c0.3-0.2,0.6-0.4,0.8-0.7c0,0,0.1-0.1,0.1-0.1c0.1-0.3,0.2-0.5,0.2-0.8c0,0,0-0.1,0-0.1
		c0-0.1,0-0.2,0-0.4C25,44.2,25,44,24.8,43.8z"/>
	<path d="M12,31.8c0.4-0.1,0.9-0.2,1.3-0.3c-0.1-4.6,0.2-9.2,0.8-13.7c5.8-1.2,11.6-2.5,17.4-3.5c4.3-0.7,8.5-1.2,12.9-1.2
		c4.3,0,8.6,0.5,12.9,1.2c5.8,1,11.7,2.2,17.4,3.5c0.6,4.5,0.9,9.1,0.8,13.7c0.4,0.1,0.9,0.2,1.3,0.2c0.1-4.9-0.2-9.9-0.9-15
		c-30.5-6.5-32.6-6.5-63,0C12.2,21.8,11.8,26.9,12,31.8z"/>
	<path d="M19.7,55l0.2,0.4l0.2,0.4l0,0l0.2,0.5l0.1,0.2c0.6,1.2,1.2,2.5,1.8,3.6c3,5.5,6.8,10.5,11.3,14.9c3.3,3.2,6.9,6.2,10.8,8.9
		c10.4-7.2,18.9-16.1,24-27.4h0c0,0,0,0,0,0h0c0.1-0.2,0.1-0.3,0.2-0.5c0.1-0.3,0.3-0.7,0.4-1c-0.3-0.1-0.6-0.1-0.8-0.2
		c-0.1,0-0.3-0.1-0.4-0.1h0c-0.7-0.1-1.7-0.3-2.6-0.4c-0.5-0.1-1-0.2-1.3-0.2l0,8.1c1.2-1.9,2.2-3.8,3.2-5.9c-0.9,2-2,4-3.2,5.9
		c-1.6,2.7-3.5,5.2-5.5,7.5v0c0,0,0,0,0,0V53.4c-1.9-0.2-3.7-0.4-5.5-0.5v3.6h0v0h0V61c0,0,0,0,0,0c0,0,0,0,0,0v14.5
		c-1.8,1.6-3.6,3.2-5.5,4.6v0V78h0V54.4h0v-1.7c-1.1,0-2.1,0-3.1,0c-0.8,0-1.6,0-2.5,0v27.5c-1.4-1-2.7-2.1-3.9-3.2
		c-0.5-0.5-1.1-0.9-1.6-1.4v0V52.9c-1.8,0.1-3.7,0.3-5.5,0.5v16.3c0,0.1,0.1,0.2,0.2,0.3c0,0,0,0,0,0c0,0,0,0,0,0
		c-1-1.2-2-2.4-2.9-3.6c-1-1.3-1.9-2.7-2.8-4.1v-8.2c-0.5,0.1-1.2,0.2-1.9,0.3c-0.7,0.1-1.3,0.2-1.9,0.3c0,0,0,0-0.1,0
		c0.2,0.6,0.4,1.2,0.7,1.7c-0.3-0.6-0.5-1.1-0.7-1.7c0,0-0.1,0-0.1,0l-0.2,0l-0.4,0.1L19.7,55z M67.4,55.6C67.2,56,67.1,56,67,56.4
		C67.1,56,67.2,56,67.4,55.6z M45.3,81.6c-0.3,0.2-0.6,0.5-0.9,0.7c0,0,0,0,0,0C44.7,82,45,81.8,45.3,81.6z"/>
	<path d="M16.3,30.9l0.2,0c0,0,0,0,0,0c1-0.2,2.1-0.3,3.1-0.5c0.2,0,0.4-0.1,0.7-0.1c1-0.1,2-0.3,3-0.4c0,0,0.1,0,0.1,0
		c1-0.1,2-0.2,3.1-0.4c0.2,0,0.5,0,0.7-0.1c0.1,0,0.2,0,0.3,0c0.9-0.1,1.8-0.2,2.7-0.3c0,0,0.1,0,0.1,0c1-0.1,2-0.2,3.1-0.2
		c0.2,0,0.5,0,0.7,0c0,0,0.1,0,0.1,0c1-0.1,1.9-0.1,2.9-0.1c0,0,0,0,0.1,0c1,0,2-0.1,3.1-0.1c0.1,0,0.2,0,0.3,0c0.1,0,0.3,0,0.4,0
		c1,0,2,0,3.1,0c1,0,2.1,0,3.1,0c0.1,0,0.3,0,0.4,0c0.1,0,0.3,0,0.4,0c1,0,2.1,0,3.1,0.1c0.1,0,0.1,0,0.2,0c1,0,2,0.1,3,0.1
		c0.2,0,0.5,0,0.8,0c1,0.1,2.1,0.1,3.2,0.2c0,0,0,0,0.1,0c0.1,0,0.2,0,0.3,0c1,0.1,1.9,0.2,2.9,0.3c0.2,0,0.5,0,0.7,0.1
		c1.1,0.1,2.1,0.2,3.2,0.3c0.1,0,0.3,0,0.4,0.1c0.9,0.1,1.9,0.2,2.8,0.4c0.2,0,0.5,0.1,0.7,0.1c1,0.1,2.1,0.3,3.1,0.5
		c0.1,0,0.1,0,0.2,0l0,0c0.2,0,0.3,0.1,0.5,0.1c0.3,0,0.6,0.1,0.8,0.1c0.1-4-0.2-8-0.6-12c-1.2-0.3-2.4-0.5-3.6-0.8
		c-4.2-0.9-8.4-1.7-12.6-2.4c-2.1-0.3-4.2-0.6-6.3-0.8c-2.1-0.2-4.2-0.3-6.3-0.3c-4.2,0-8.4,0.5-12.6,1.2c-5.4,0.9-10.8,2-16.2,3.2
		c-0.2,2-0.4,4-0.5,6c-0.1,2-0.1,4-0.1,6c0.4-0.1,0.8-0.1,1.1-0.2C16.2,31,16.2,31,16.3,30.9L16.3,30.9 M68.5,26.3l0.4,3.8l0,0l0,0
		l-1.2-1.3l-1.3-1.5L63,28.8l1.9-3.3l-2.5-2.8l3.7,0.8l1.9-3.3l0,0l0,0l0.4,3.4l0,0.3l3.7,0.8l0,0l0,0L68.5,26.3z M56.6,18l0.6,3.7
		l3.7,0.5l0,0h0l-3.3,1.8l0.6,3.7l-2.7-2.6l-2.1,1.1l-1.2,0.6l0,0l0,0l1.7-3.4l-2.7-2.6l1.6,0.2l2.2,0.3L56.6,18z M26.7,22.7
		l-2.5,2.8l1.9,3.3l0,0l0,0l-3.4-1.6L20.1,30l0.4-3.7l-3.4-1.6l3.7-0.8l0.4-3.8l1.9,3.3L26.7,22.7L26.7,22.7L26.7,22.7z M37.6,21
		l-2.7,2.6l1.7,3.4l0,0l0,0l-3.3-1.8l-2.7,2.6l0,0l0,0l0.6-3.2l0.1-0.5l-3.3-1.8l3.7-0.5l0.6-3.7l1.2,2.4l0.5,1L37.6,21L37.6,21
		L37.6,21z M41.1,26.9L41.1,26.9L41.1,26.9l1.3-3.8l-3.3-2.4h0l0,0l2.4,0l1.6,0l1.2-3.8l0.2,0.6l1.1,3.3l1.6,0l2.4,0L49.3,21
		l-2.9,2.1L47,25l0.6,1.9l0,0l0,0L46,25.7l-1.6-1.2L41.1,26.9z"/>
</g>
</svg>
