<svg version="1.1" id="Layer_1" xmlns="http://www.w3.org/2000/svg" x="0px" y="0px"
	 viewBox="0 0 88.8 96.7" style="enable-background:new 0 0 88.8 96.7;">
<style type="text/css">
	.st0{fill:#231F20;}
</style>
<g>
	<path class="st0" d="M44.3,41.5c-3.4,0-6.3,1.4-8.7,4.3c-2.4,2.9-3.6,6.4-3.6,10.5c0,4.1,1.2,7.6,3.6,10.5c2.4,2.9,5.3,4.3,8.7,4.3
		c3.4,0,6.3-1.4,8.7-4.3c2.4-2.9,3.6-6.4,3.6-10.5c0-4.1-1.2-7.6-3.6-10.5C50.6,43,47.7,41.5,44.3,41.5z"/>
	<path class="st0" d="M44.3,71.7c-4.2,0-7.9-1.5-10.9-4.5c-3-3-4.5-6.7-4.5-10.9c0-4.3,1.5-7.9,4.5-10.9c3-3,6.7-4.5,10.9-4.5
		c5.2,0,9.4,2,12.3,6.1V25v-0.1c-3.7-1.9-7.8-3-12.3-3c-14.6,0-26.4,11.8-26.4,26.4c0,14.6,11.8,26.4,26.4,26.4
		c4.4,0,8.6-1.1,12.3-3v-0.1v-6.1c-0.4,0.6-0.9,1.1-1.4,1.7C52.2,70.2,48.6,71.7,44.3,71.7z"/>
	<path class="st0" d="M70.8,48.3c0-3.3-0.6-6.4-1.7-9.4c0,0-0.1,0-0.1,0c-1.9-4.9-5.1-9.2-9.3-12.2v0.1v27.8v1.6v13.4v0.1
		c1-0.7,2-1.5,2.9-2.4c0,0,0,0.1,0,0.1C67.7,62.7,70.8,55.9,70.8,48.3z"/>
</g>
</svg>
