<svg version="1.1" id="Layer_1" xmlns="http://www.w3.org/2000/svg" x="0px" y="0px"
	 viewBox="0 0 88.8 96.7" style="enable-background:new 0 0 88.8 96.7;">
<g>
	<path d="M43.2,17.4c-0.3-0.9-1.1-0.8-1.5-0.5c-0.6,0.5-0.7,0.6-3.7,3.7c-0.6,0.6-0.7,1.1-0.2,1.9c4.2,8.1,4.9,16.4,1.1,21.5
		c-2.6,3.5-7.8,8.2-16,8.2c-1.6,0-4.8-0.5-5.3-0.5c-0.6,0-2.2,0.5-2.2,0.8c0.1,0.7,4,2.2,7.9,2.2l0,0c5.2,0,12.6-1.8,17-5.9
		C49.6,40.1,47.1,28.4,43.2,17.4z"/>
	<path d="M72.9,27.8c-2,0-8.5,2.4-13,5.7c-6.3,4.6-10.9,9.9-13.4,15.8C44,55,43,61.8,43.6,69.4c0,0.6,0.5,4.9,0.8,6.1
		c0.1,0.6,0.5,1.2,1.5,1.2c2.3,0,4.9,0,5.4,0c0.7,0,1.1-0.7,0.7-1.3c-0.4-0.7-1.2-2.3-1.5-3.2c-2.9-7.5-0.5-19.2,3.2-25.8
		c3.8-6.5,9.6-12.7,16.5-15.6c1-0.4,1.9-0.9,2.8-2.1C73.2,28.6,73.9,27.8,72.9,27.8z"/>
	<path d="M38.9,64.2c-1.9,2.5-5.2,3.3-7.3,1.7c-2.1-1.6-2.4-5-0.5-7.5c1.9-2.5,5.2-3.3,7.3-1.7C40.6,58.3,40.8,61.6,38.9,64.2z"/>
</g>
</svg>
