<svg version="1.1" id="Layer_1" xmlns="http://www.w3.org/2000/svg" x="0px" y="0px"
	 viewBox="0 0 88.8 96.7" style="enable-background:new 0 0 88.8 96.7;">
<path d="M57,44c0.7-0.4,1.5-0.7,2.3-1.1c6-2.8,12.7-6,16.3-11.5c1.6-2.4,2.4-6.8,1-9.6c-0.8-1.6-2.2-2.6-4.2-2.7
	c-3.4-0.3-5.7,2.9-7.2,4.7c-2.4,3.2-4.7,6.8-6.9,10.9c-1.2,2.2-2.4,4.6-3.6,7.3c-2.5,1.2-4.7,2.1-6.7,3c-2.7,1.1-5.4,2.1-8.1,3
	c2.4-5.6,4.8-11.2,7-16.5c0.3-0.8-0.1-1.4-0.7-1.6c-0.7-0.3-1.7-0.1-2.1,0.8c-2.6,6.3-5.3,12.5-7.9,18.5c-1.2,0.3-2.4,0.6-3.7,0.9
	c-0.1-0.5-0.3-1-0.4-1.4c-1.9-5.4-7.6-10.3-14.3-8.8c-3.1,0.7-5.8,3.3-6.5,6.3c-0.6,2.3,0.2,4.5,2,6.1c4.2,3.6,10.9,2.6,16.9,1.2
	c0.5,5.5-1.4,11.3-3.1,15.9l-0.3,0.6c-0.1,0.2-0.2,0.4-0.3,0.7c-0.2,0.5-0.2,1,0.1,1.5c0.3,0.5,0.8,0.7,1.4,0.7c0.4,0,0.8-0.3,1-0.8
	l0.1-0.3c0.1-0.1,0.2-0.2,0.2-0.4c0.1-0.2,0.2-0.4,0.2-0.6l0.1-0.2c2.8-6.2,5.7-12.5,8.5-19c4.6-1.4,9.4-3.1,14.4-5.4
	c-2.7,6-9.1,20.4-13,30.1c-0.3,0.7,0,1.4,0.7,1.6c0.2,0.1,0.4,0.1,0.6,0.1c0.6,0,1.1-0.3,1.4-0.9C48.3,62.9,55.9,46.3,57,44L57,44z
	 M74.8,26.8c-0.9,4.3-7.1,8.2-8.9,9.3c-2.1,1.3-4.4,2.5-6.9,3.8c0.9-1.8,1.6-3.3,2.4-4.6l0.2-0.4c4.6-8.4,8.1-12.7,10.6-12.9
	c0,0,0.1,0,0.1,0c0.7,0,1.2,0.3,1.7,1C74.8,24.2,75.1,25.4,74.8,26.8z M33.3,52.7c0.6-0.1,1.2-0.3,1.7-0.4c-0.5,1.2-1.1,2.4-1.6,3.6
	C33.5,54.8,33.4,53.7,33.3,52.7z M29.8,49.6c0.1,0.3,0.2,0.5,0.3,0.8c-0.1,0-0.3,0.1-0.4,0.1L29,50.7c-4,0.8-13.5,2.6-14.7-2.6
	c-0.3-1.5,0-2.8,1.1-3.8c1.4-1.3,3.6-1.9,5.5-1.9c0.6,0,1.2,0.1,1.8,0.2C25.9,43.3,28.5,45.9,29.8,49.6z"/>
</svg>
