<svg version="1.1" id="Layer_1" xmlns="http://www.w3.org/2000/svg" x="0px" y="0px"
	 viewBox="0 0 88.8 96.7" style="enable-background:new 0 0 88.8 96.7;">
<path d="M40.8,38.9c3.9-1.2,6.4-3.6,7.5-7.5c0.1-0.4,0.4-0.6,0.8-0.6l0,0c0.4,0,0.7,0.2,0.8,0.6c1.2,3.9,3.6,6.4,7.5,7.5
	c0.4,0.1,0.6,0.4,0.6,0.8l0,0c0,0.4-0.2,0.7-0.6,0.8c-3.9,1.2-6.4,3.6-7.5,7.5c-0.1,0.4-0.4,0.6-0.8,0.6l0,0c-0.4,0-0.7-0.2-0.8-0.6
	c-1.2-3.9-3.6-6.4-7.5-7.5c-0.4-0.1-0.6-0.4-0.6-0.8v0C40.2,39.3,40.4,39,40.8,38.9z"/>
<path d="M32.1,26.8c3-0.9,4.9-2.7,5.7-5.7c0.1-0.3,0.3-0.5,0.6-0.5l0,0c0.3,0,0.5,0.2,0.6,0.5c0.9,3,2.7,4.9,5.7,5.7
	c0.3,0.1,0.5,0.3,0.5,0.6l0,0c0,0.3-0.2,0.5-0.5,0.6c-3,0.9-4.9,2.7-5.7,5.7c-0.1,0.3-0.3,0.5-0.6,0.5l0,0c-0.3,0-0.5-0.2-0.6-0.5
	c-0.9-3-2.7-4.9-5.7-5.7c-0.3-0.1-0.5-0.3-0.5-0.6v0C31.6,27.2,31.8,26.9,32.1,26.8z"/>
<path d="M44.5,17.9c2.2-0.6,3.5-2,4.1-4.1c0.1-0.2,0.2-0.3,0.4-0.3l0,0c0.2,0,0.4,0.1,0.4,0.3c0.6,2.2,2,3.5,4.1,4.1
	c0.2,0.1,0.3,0.2,0.3,0.4l0,0c0,0.2-0.1,0.4-0.3,0.4c-2.2,0.6-3.5,2-4.1,4.1c-0.1,0.2-0.2,0.3-0.4,0.3l0,0c-0.2,0-0.4-0.1-0.4-0.3
	c-0.6-2.2-2-3.5-4.1-4.1c-0.2-0.1-0.3-0.2-0.3-0.4l0,0C44.2,18.1,44.3,17.9,44.5,17.9z"/>
<g>
	<path d="M49.3,64.7l-3.2,3.9l6.6,7.9c0.5,0.6,1.2,0.9,1.9,0.9c0.6,0,1.1-0.2,1.6-0.6c1-0.9,1.2-2.4,0.3-3.5L49.3,64.7z"/>
	<path d="M44.7,59.1l-3.9-4.7h-6.4l7.1,8.5l-8.6,10.4c-0.9,1-0.7,2.6,0.3,3.5c0.5,0.4,1,0.6,1.6,0.6c0.7,0,1.4-0.3,1.9-0.9l5.5-6.6
		l-3,0c-0.3,0-0.6-0.3-0.6-0.6c0-0.3,0.3-0.6,0.6-0.6c0,0,0,0,0,0l4,0l1.7-2.1l-3,0.1c0,0,0,0,0,0c-0.3,0-0.6-0.2-0.6-0.6
		c0-0.3,0.2-0.6,0.6-0.6l4-0.1l1.6-2l-3,0.1c0,0,0,0,0,0c-0.3,0-0.6-0.2-0.6-0.6c0-0.3,0.2-0.6,0.6-0.6l3.9-0.1l1.6-1.9l-2.8,0
		c-0.3,0-0.6-0.3-0.6-0.6c0-0.3,0.3-0.6,0.6-0.6c0,0,0,0,0,0l3.8,0l4-4.9h-6.4L44.7,59.1z"/>
</g>
</svg>
