<svg version="1.1" id="Layer_1" xmlns="http://www.w3.org/2000/svg" x="0px" y="0px"
	 viewBox="0 0 88.8 96.7" style="enable-background:new 0 0 88.8 96.7;">
<style type="text/css">
	.st0{fill:#010101;}
</style>
<path class="st0" d="M60.4,20.9l-0.9,1.2c-1.4-2-3.4-3.1-6.3-3.1c-12.6,0-21.7,19.7-22.1,35.9c-9.9-0.3-14.3-6.6-14.3-12.2
	c0-4.7,3-9,8.3-9c1.5,0,2.8,0.4,4,1.1l2.7-4.4c-1.5-0.9-2.7-1.3-4.6-1.3c-9.3,0-14.4,6.6-14.4,13.5c0,7.3,5.8,14.9,18.3,15.2
	c0.6,9.8,4.8,17.6,14,17.6c15.3,0,23.6-19,23.6-34.8C68.8,31.6,66,23.6,60.4,20.9 M53,21.5c2.6,0,3.9,2.4,3.9,5.9
	c0,8.7-7.7,24.3-20.9,27.1C36.6,39.7,43.7,21.5,53,21.5 M45.4,72.9c-6.4,0-9.2-6.8-9.5-15.3c16.4-2.2,25.4-17.7,25.4-28.4
	c0-2.3-0.4-4.5-1.3-6.1c2.8,3.4,4.1,9.2,4.1,15.7C64.2,54,56.9,72.9,45.4,72.9"/>
</svg>
